<svg width="180" height="60" viewBox="0 0 180 60" fill="none" xmlns="http://www.w3.org/2000/svg">
<path d="M0 5C0 2.23858 2.23858 0 5 0H175C177.761 0 180 2.23858 180 5V55C180 57.7614 177.761 60 175 60H5C2.23858 60 0 57.7614 0 55V5Z" fill="white"/>
<path d="M124.15 44.6C123.05 45.6333 121.7 46.45 120.1 47.05C118.5 47.6833 117.05 48 115.75 48C112.45 48 110.1 47.0333 108.7 45.1C107.333 43.1333 106.65 40.7667 106.65 38V22.75H113.2V37.7C113.2 39.2333 113.567 40.4167 114.3 41.25C115.033 42.05 116.1 42.45 117.5 42.45C118.367 42.45 119.283 42.2333 120.25 41.8C121.217 41.3667 122.1 40.8667 122.9 40.3V22.75H129.4V47H126L124.15 44.6Z" fill="url(#paint0_linear_86_44)"/>
<path d="M137.15 12C138.183 12 139.05 12.35 139.75 13.05C140.483 13.75 140.85 14.6167 140.85 15.65C140.85 16.6833 140.483 17.55 139.75 18.25C139.05 18.95 138.183 19.3 137.15 19.3C136.15 19.3 135.3 18.95 134.6 18.25C133.9 17.55 133.55 16.6833 133.55 15.65C133.55 14.6167 133.9 13.75 134.6 13.05C135.3 12.35 136.15 12 137.15 12ZM140.4 22.75V47H133.9V22.75H140.4Z" fill="url(#paint1_linear_86_44)"/>
<path d="M163.95 26.45L152.25 41.75H163.95L164.45 47H144.45L143.6 43.55L155.15 28.1H145.45L144.2 22.75H163.6L163.95 26.45Z" fill="url(#paint2_linear_86_44)"/>
<path d="M100.8 49.8L97.3501 46.65C96.2167 47.2833 94.9834 47.7833 93.65 48.15C92.3167 48.5167 90.8667 48.7 89.3 48.7C84 48.7 80.0667 47 77.5 43.6C74.9334 40.1667 73.65 36.0167 73.65 31.15C73.65 25.9167 75.0167 21.6167 77.75 18.25C80.4834 14.8833 84.3334 13.2 89.3 13.2C94.6334 13.2 98.5834 14.9167 101.15 18.35C103.717 21.7833 105 25.9333 105 30.8C105 33.3 104.667 35.6167 104 37.75C103.367 39.85 102.45 41.6667 101.25 43.2L104.6 46.45L100.8 49.8ZM80.4 31.1C80.4 34.6667 81.1167 37.5833 82.55 39.85C83.9834 42.1167 86.2167 43.25 89.2501 43.25C89.8834 43.25 90.5167 43.1833 91.15 43.05C91.7834 42.8833 92.3667 42.6833 92.9 42.45L88.7501 38.6L93.15 35.25L96.7501 38.75C97.2167 37.7833 97.5834 36.65 97.8501 35.35C98.1167 34.0167 98.2501 32.5 98.2501 30.8C98.2501 27.2667 97.5334 24.3667 96.1001 22.1C94.6667 19.8333 92.4334 18.7 89.4 18.7C86.7334 18.7 84.5667 19.8167 82.9 22.05C81.2334 24.2833 80.4 27.3 80.4 31.1Z" fill="url(#paint3_linear_86_44)"/>
<path d="M88.8 38.5L93.3 35L104.8 46.5L100.747 50.1599L88.8 38.5Z" fill="url(#paint4_linear_86_44)"/>
<path d="M28.7 13C32 13 34.6833 13.7333 36.75 15.2C38.8167 16.6333 39.85 19.0667 39.85 22.5C39.85 23.7667 39.55 24.9167 38.95 25.95C38.3833 26.95 37.6333 27.8167 36.7 28.55C38.2333 29.35 39.4833 30.4333 40.45 31.8C41.45 33.1667 41.95 34.9 41.95 37C41.95 40.1333 40.85 42.5833 38.65 44.35C36.4833 46.1167 33.5833 47 29.95 47H16V13H28.7ZM27.75 18.4H22.45V26.85H27.25C29.05 26.85 30.45 26.5167 31.45 25.85C32.4833 25.15 33 24.0667 33 22.6C33 21 32.5333 19.9 31.6 19.3C30.6667 18.7 29.3833 18.4 27.75 18.4ZM29.9 32.1H22.45V41.65H29.45C31.1833 41.65 32.5667 41.25 33.6 40.45C34.6667 39.65 35.2 38.5167 35.2 37.05C35.2 35.45 34.7167 34.2333 33.75 33.4C32.7833 32.5333 31.5 32.1 29.9 32.1Z" fill="url(#paint5_linear_86_44)"/>
<path d="M16.3 44.25C16.3 42.7312 17.5312 41.5 19.05 41.5H30.7477C31.4397 41.5 32.1222 41.3389 32.7412 41.0294C33.435 40.6825 34.0317 40.1524 34.462 39.507C34.6845 39.1732 34.8643 38.8072 34.9911 38.4267L35.0628 38.2115C35.2199 37.7403 35.3 37.2467 35.3 36.75V36.6441C35.3 36.2175 35.2312 35.7937 35.0963 35.3889L34.9281 34.8843C34.8439 34.6316 34.7019 34.4019 34.5135 34.2135L33.8 33.5C33.5239 33.2239 33.5239 32.7761 33.8 32.5L36.6547 29.6453C37.0401 29.2599 37.6288 29.1644 38.1162 29.4081C38.2379 29.469 38.3491 29.5491 38.4453 29.6453L39.7263 30.9263C40.1063 31.3063 40.4225 31.7451 40.6629 32.2257L41.3 33.5C41.6288 34.1576 41.8 34.8828 41.8 35.618V38.8197C41.8 39.5959 41.6193 40.3615 41.2721 41.0557L41.0016 41.5967C40.8675 41.865 40.7095 42.1207 40.5295 42.3607L39.8877 43.2165C39.4996 43.7339 39.0148 44.1711 38.4601 44.5039L36.8 45.5L36.1178 45.8411C35.9062 45.9469 35.6874 46.0376 35.4629 46.1124L33.5697 46.7434C33.0599 46.9134 32.526 47 31.9886 47H19.05C17.5312 47 16.3 45.7688 16.3 44.25Z" fill="url(#paint6_linear_86_44)"/>
<path d="M56.4501 47.6C52.25 47.6 48.9334 46.45 46.5 44.15C44.1 41.85 42.9 38.7667 42.9 34.9C42.9 31.0333 43.9834 27.9333 46.1501 25.6C48.3501 23.2667 51.3334 22.1 55.1 22.1C58.9 22.1 61.6834 23.3667 63.4501 25.9C65.2501 28.4 66.15 31.3667 66.15 34.8V36.8H49.8C50.1 38.4 50.8334 39.6833 52 40.65C53.1667 41.5833 54.7 42.05 56.6 42.05C57.7 42.05 58.6834 41.9167 59.55 41.65C60.45 41.35 61.4834 40.9333 62.65 40.4L64.55 45.1C63.4167 45.9667 62.0334 46.6 60.4001 47C58.8001 47.4 57.4834 47.6 56.4501 47.6ZM60 32.45C59.6667 30.8167 59.0667 29.6167 58.2001 28.85C57.3334 28.05 56.25 27.65 54.9501 27.65C53.6167 27.65 52.5 28.0667 51.6 28.9C50.7 29.7 50.1167 30.8833 49.85 32.45H60Z" fill="url(#paint7_linear_86_44)"/>
<path d="M49.8 33.5C49.8 32.9477 50.2478 32.5 50.8 32.5H58.9397C59.4148 32.5 59.8 32.1148 59.8 31.6396C59.8 31.5471 59.7851 31.4553 59.7559 31.3675L59.3747 30.224C59.3256 30.0767 59.2429 29.9429 59.1331 29.8331L57.3863 28.0862C57.3296 28.0295 57.2604 27.9868 57.1844 27.9614C56.7225 27.8075 56.7105 27.1586 57.1663 26.9876L59.8 26L62.0754 25.2415C62.5033 25.0989 62.9736 25.2603 63.2237 25.6355L64.7258 27.8886C64.7751 27.9625 64.8143 28.0427 64.8424 28.127L65.7752 30.9256C65.7918 30.9751 65.8044 31.0259 65.813 31.0774L66.2864 33.9184C66.2955 33.9727 66.3 34.0277 66.3 34.0828V36C66.3 36.5523 65.8523 37 65.3 37H50.8C50.2478 37 49.8 36.5523 49.8 36V33.5Z" fill="url(#paint8_linear_86_44)"/>
<path d="M122.8 23.506C122.8 22.9514 123.251 22.5027 123.806 22.506L128.406 22.5335C128.956 22.5368 129.4 22.9835 129.4 23.5335V46C129.4 46.5523 128.952 47 128.4 47H126.281C125.977 47 125.69 46.8619 125.5 46.6247L123.866 44.5827C123.822 44.5277 123.784 44.4682 123.753 44.4052L122.906 42.7111C122.836 42.5723 122.8 42.4192 122.8 42.2639V23.506Z" fill="url(#paint9_linear_86_44)"/>
<path d="M141.8 16.5C141.8 18.9853 139.785 21 137.3 21C134.815 21 132.8 18.9853 132.8 16.5C132.8 14.0147 134.815 12 137.3 12C139.785 12 141.8 14.0147 141.8 16.5Z" fill="url(#paint10_linear_86_44)"/>
<path d="M143.8 22.5H163.8L164.3 26.5L162.8 28L159.3 27L155.3 28.5H145.3L143.8 22.5Z" fill="url(#paint11_linear_86_44)"/>
<defs>
<linearGradient id="paint0_linear_86_44" x1="80.6896" y1="25.7143" x2="80.7247" y2="47.1479" gradientUnits="userSpaceOnUse">
<stop stop-color="#1E8291"/>
<stop offset="1" stop-color="#239DA0"/>
</linearGradient>
<linearGradient id="paint1_linear_86_44" x1="80.6896" y1="25.7143" x2="80.7247" y2="47.1479" gradientUnits="userSpaceOnUse">
<stop stop-color="#1F7A88"/>
<stop offset="1" stop-color="#239DA0"/>
</linearGradient>
<linearGradient id="paint2_linear_86_44" x1="80.6896" y1="25.7143" x2="80.7247" y2="47.1479" gradientUnits="userSpaceOnUse">
<stop stop-color="#1A7684"/>
<stop offset="1" stop-color="#239DA0"/>
</linearGradient>
<linearGradient id="paint3_linear_86_44" x1="144.545" y1="41.2088" x2="142.889" y2="16.378" gradientUnits="userSpaceOnUse">
<stop stop-color="#1D7887"/>
<stop offset="1" stop-color="#249EA1"/>
</linearGradient>
<linearGradient id="paint4_linear_86_44" x1="85.9985" y1="2.44751" x2="85.9985" y2="59.016" gradientUnits="userSpaceOnUse">
<stop stop-color="#B11132"/>
<stop offset="1" stop-color="#C72B4A"/>
</linearGradient>
<linearGradient id="paint5_linear_86_44" x1="144.545" y1="41.2088" x2="142.889" y2="16.378" gradientUnits="userSpaceOnUse">
<stop stop-color="#156673"/>
<stop offset="1" stop-color="#249EA1"/>
</linearGradient>
<linearGradient id="paint6_linear_86_44" x1="140.81" y1="52.6471" x2="40.7108" y2="127.761" gradientUnits="userSpaceOnUse">
<stop stop-color="#B11132"/>
<stop offset="1" stop-color="#D33857"/>
</linearGradient>
<linearGradient id="paint7_linear_86_44" x1="144.545" y1="41.2088" x2="142.889" y2="16.378" gradientUnits="userSpaceOnUse">
<stop stop-color="#186774"/>
<stop offset="1" stop-color="#249EA1"/>
</linearGradient>
<linearGradient id="paint8_linear_86_44" x1="167.564" y1="43.75" x2="29.2015" y2="121.032" gradientUnits="userSpaceOnUse">
<stop stop-color="#B11132"/>
<stop offset="1" stop-color="#CC304F"/>
</linearGradient>
<linearGradient id="paint9_linear_86_44" x1="85.9987" y1="3.22246" x2="85.9987" y2="49.4008" gradientUnits="userSpaceOnUse">
<stop stop-color="#B11132"/>
<stop offset="1" stop-color="#C72B4A"/>
</linearGradient>
<linearGradient id="paint10_linear_86_44" x1="90" y1="0" x2="90" y2="60" gradientUnits="userSpaceOnUse">
<stop stop-color="#B11132"/>
<stop offset="1" stop-color="#C72B4A"/>
</linearGradient>
<linearGradient id="paint11_linear_86_44" x1="146.8" y1="25.9167" x2="163.8" y2="25.9167" gradientUnits="userSpaceOnUse">
<stop stop-color="#B11132"/>
<stop offset="1" stop-color="#C72B4A"/>
</linearGradient>
</defs>
</svg>
