<svg width="180" height="60" viewBox="0 0 180 60" fill="none" xmlns="http://www.w3.org/2000/svg">
<path fill-rule="evenodd" clip-rule="evenodd" d="M5 0C2.23853 0 0 2.23853 0 5V55C0 57.7615 2.23853 60 5 60H175C177.761 60 180 57.7615 180 55V5C180 2.23853 177.761 0 175 0H5ZM53.425 20.7C53.2917 20.5667 53.1333 20.5 52.95 20.5H47.8C47.6167 20.5 47.4583 20.5667 47.325 20.7C47.1917 20.8334 47.125 20.9917 47.125 21.175V26.3H42.125V21.175C42.125 20.9917 42.0583 20.8334 41.925 20.7C41.845 20.6199 41.7559 20.5638 41.6575 20.5319C41.5923 20.5106 41.5232 20.5 41.45 20.5H36.3C36.1167 20.5 35.9583 20.5667 35.825 20.7C35.6917 20.8334 35.625 20.9917 35.625 21.175V37.325C35.625 37.525 35.6917 37.6917 35.825 37.825C35.8865 37.8788 35.9534 37.9203 36.0256 37.9493C36.1099 37.9832 36.2014 38 36.3 38H41.45C41.6333 38 41.7917 37.9333 41.925 37.8C42.0583 37.6666 42.125 37.5083 42.125 37.325V32H47.125V37.325C47.125 37.4308 47.1472 37.5283 47.1917 37.6176C47.2241 37.6829 47.2686 37.7437 47.325 37.8C47.4031 37.8782 47.49 37.9335 47.5854 37.9658C47.6526 37.9886 47.7241 38 47.8 38H52.95C53.1333 38 53.2917 37.9333 53.425 37.8C53.5583 37.6666 53.625 37.5083 53.625 37.325V21.175C53.625 20.9917 53.5583 20.8334 53.425 20.7ZM62.6401 38C63.1736 38 63.5486 37.7167 63.7651 37.15L64.3901 35.4H70.4902L71.1152 37.15C71.3318 37.7167 71.7068 38 72.2402 38H76.9653C77.1152 38 77.2402 37.95 77.3403 37.85C77.4568 37.7333 77.5151 37.6 77.5151 37.45L77.4902 37.3L72.0403 21.325C71.9736 21.1083 71.8486 20.9166 71.6653 20.75C71.4819 20.5834 71.2319 20.5 70.9153 20.5H63.9653C63.7964 20.5 63.6465 20.5237 63.5156 20.571C63.4011 20.6125 63.301 20.6722 63.2153 20.75C63.032 20.9166 62.907 21.1083 62.8403 21.325L57.3901 37.3L57.3652 37.45C57.3652 37.6 57.4153 37.7333 57.5151 37.85C57.5767 37.9027 57.6428 37.9415 57.7136 37.9664C57.7771 37.9888 57.8442 38 57.9153 38H62.6401ZM65.6653 30.525L67.4402 25.325L69.2153 30.525H65.6653ZM97.4304 29.85C97.0471 29.5333 96.7139 29.3334 96.4304 29.25C96.7305 29.1666 97.072 28.975 97.4556 28.675C97.8555 28.3583 98.197 27.95 98.4805 27.45C98.7639 26.95 98.9055 26.4 98.9055 25.8C98.9055 24.6666 98.5305 23.6833 97.7805 22.85C97.0471 22 96.0222 21.3583 94.7056 20.925C93.3889 20.475 91.8972 20.25 90.2305 20.25C88.2471 20.25 86.6055 20.5333 85.3054 21.1C84.0222 21.65 83.0806 22.3334 82.4805 23.15C81.8972 23.95 81.6055 24.725 81.6055 25.475C81.6055 25.567 81.6206 25.6489 81.6511 25.7206C81.676 25.7787 81.7107 25.8302 81.7554 25.875C81.8289 25.9381 81.9092 25.9813 81.9961 26.0045C82.0469 26.0182 82.1001 26.025 82.1555 26.025H87.6304C87.8137 26.025 88.0054 25.925 88.2056 25.725C88.4387 25.4917 88.6721 25.3334 88.9055 25.25C89.1389 25.1666 89.5889 25.125 90.2554 25.125C90.822 25.125 91.2805 25.2167 91.6304 25.4C91.9805 25.5834 92.1555 25.85 92.1555 26.2C92.1555 26.45 91.9888 26.6583 91.6555 26.825C91.322 26.975 90.8472 27.05 90.2305 27.05H87.6055C87.4917 27.05 87.3877 27.0757 87.293 27.1271C87.2351 27.1584 87.1809 27.1995 87.1304 27.25C86.9971 27.3833 86.9304 27.5416 86.9304 27.725V30.8C86.9304 30.9833 86.9971 31.1417 87.1304 31.275C87.2639 31.4083 87.4221 31.475 87.6055 31.475H90.2305C90.8472 31.475 91.322 31.5583 91.6555 31.725C91.9888 31.875 92.1555 32.075 92.1555 32.325C92.1555 32.675 91.9805 32.9417 91.6304 33.125C91.2805 33.3083 90.822 33.4 90.2554 33.4C89.99 33.4 89.759 33.3934 89.5623 33.3802C89.2649 33.3602 89.0459 33.3251 88.9055 33.275C88.6721 33.1917 88.4387 33.0333 88.2056 32.8C88.0679 32.6624 87.9341 32.572 87.8044 32.5292C87.7456 32.5098 87.6875 32.5 87.6304 32.5H82.1555C82.0923 32.5 82.032 32.5089 81.9746 32.5266C81.896 32.551 81.823 32.5922 81.7554 32.65C81.6555 32.75 81.6055 32.8833 81.6055 33.05C81.6055 33.8 81.8972 34.575 82.4805 35.375C83.0806 36.175 84.0222 36.8583 85.3054 37.425C86.6055 37.975 88.2471 38.25 90.2305 38.25C91.8972 38.25 93.3889 38.0333 94.7056 37.6C96.0222 37.15 97.0471 36.5167 97.7805 35.7C98.5305 34.8667 98.9055 33.8833 98.9055 32.75C98.9055 32.15 98.7554 31.6 98.4556 31.1C98.1721 30.5834 97.8306 30.1666 97.4304 29.85ZM108.121 38C108.654 38 109.029 37.7167 109.246 37.15L109.871 35.4H115.971L116.596 37.15C116.812 37.7167 117.187 38 117.721 38H122.446C122.596 38 122.721 37.95 122.821 37.85C122.937 37.7333 122.996 37.6 122.996 37.45L122.971 37.3L117.521 21.325C117.481 21.1965 117.421 21.0769 117.341 20.9661C117.285 20.8899 117.22 20.8179 117.146 20.75C116.962 20.5834 116.712 20.5 116.396 20.5H109.446C109.259 20.5 109.095 20.5292 108.954 20.5874C108.857 20.6277 108.771 20.6819 108.696 20.75C108.512 20.9166 108.387 21.1083 108.321 21.325L102.871 37.3L102.846 37.45C102.846 37.6 102.896 37.7333 102.996 37.85C103.112 37.95 103.246 38 103.396 38H108.121ZM111.146 30.525L112.921 25.325L114.696 30.525H111.146ZM143.086 20.7C142.953 20.5667 142.794 20.5 142.611 20.5H129.411C129.228 20.5 129.069 20.5667 128.936 20.7C128.802 20.8334 128.736 20.9917 128.736 21.175V25.975C128.736 28.5083 128.586 30.25 128.286 31.2C127.986 32.15 127.561 32.625 127.011 32.625H126.611C126.498 32.625 126.395 32.6503 126.301 32.7006C126.242 32.7322 126.187 32.7736 126.136 32.825C126.003 32.9584 125.936 33.1167 125.936 33.3V40.425C125.936 40.625 126.003 40.7833 126.136 40.9C126.269 41.0333 126.427 41.1 126.611 41.1H130.636C130.819 41.1 130.978 41.0333 131.111 40.9C131.244 40.7667 131.311 40.6083 131.311 40.425V38H139.836V40.425C139.836 40.6083 139.903 40.7667 140.036 40.9C140.169 41.0333 140.328 41.1 140.511 41.1H144.561C144.744 41.1 144.903 41.0333 145.036 40.9C145.169 40.7667 145.236 40.6083 145.236 40.425V33.3C145.236 33.1167 145.169 32.9584 145.036 32.825C144.903 32.6917 144.744 32.625 144.561 32.625H143.286V21.175C143.286 20.9917 143.219 20.8334 143.086 20.7ZM134.511 30C134.661 29.0167 134.736 27.8417 134.736 26.475V25.625H137.286V32.625H133.761C134.111 31.8417 134.361 30.9667 134.511 30Z" fill="white"/>
</svg>
