<svg width="50" height="50" viewBox="0 0 50 50" fill="none" xmlns="http://www.w3.org/2000/svg">
<rect width="50" height="50" rx="25" fill="#4E5DE9"/>
<path d="M14.0795 24H13.0227C12.9602 23.696 12.8509 23.429 12.6946 23.1989C12.5412 22.9688 12.3537 22.7756 12.1321 22.6193C11.9134 22.4602 11.6705 22.3409 11.4034 22.2614C11.1364 22.1818 10.858 22.142 10.5682 22.142C10.0398 22.142 9.56108 22.2756 9.1321 22.5426C8.70597 22.8097 8.36648 23.2031 8.11364 23.723C7.86364 24.2429 7.73864 24.8807 7.73864 25.6364C7.73864 26.392 7.86364 27.0298 8.11364 27.5497C8.36648 28.0696 8.70597 28.4631 9.1321 28.7301C9.56108 28.9972 10.0398 29.1307 10.5682 29.1307C10.858 29.1307 11.1364 29.0909 11.4034 29.0114C11.6705 28.9318 11.9134 28.8139 12.1321 28.6577C12.3537 28.4986 12.5412 28.304 12.6946 28.0739C12.8509 27.8409 12.9602 27.5739 13.0227 27.2727H14.0795C14 27.7187 13.8551 28.1179 13.6449 28.4702C13.4347 28.8224 13.1733 29.1222 12.8608 29.3693C12.5483 29.6136 12.1974 29.7997 11.8082 29.9276C11.4219 30.0554 11.0085 30.1193 10.5682 30.1193C9.82386 30.1193 9.16193 29.9375 8.58239 29.5739C8.00284 29.2102 7.54688 28.6932 7.21449 28.0227C6.8821 27.3523 6.71591 26.5568 6.71591 25.6364C6.71591 24.7159 6.8821 23.9205 7.21449 23.25C7.54688 22.5795 8.00284 22.0625 8.58239 21.6989C9.16193 21.3352 9.82386 21.1534 10.5682 21.1534C11.0085 21.1534 11.4219 21.2173 11.8082 21.3452C12.1974 21.473 12.5483 21.6605 12.8608 21.9077C13.1733 22.152 13.4347 22.4503 13.6449 22.8026C13.8551 23.152 14 23.5511 14.0795 24ZM18.31 30.1364C17.7191 30.1364 17.2006 29.9957 16.7546 29.7145C16.3114 29.4332 15.9648 29.0398 15.7148 28.5341C15.4677 28.0284 15.3441 27.4375 15.3441 26.7614C15.3441 26.0795 15.4677 25.4844 15.7148 24.9759C15.9648 24.4673 16.3114 24.0724 16.7546 23.7912C17.2006 23.5099 17.7191 23.3693 18.31 23.3693C18.9009 23.3693 19.418 23.5099 19.8612 23.7912C20.3072 24.0724 20.6538 24.4673 20.9009 24.9759C21.1509 25.4844 21.2759 26.0795 21.2759 26.7614C21.2759 27.4375 21.1509 28.0284 20.9009 28.5341C20.6538 29.0398 20.3072 29.4332 19.8612 29.7145C19.418 29.9957 18.9009 30.1364 18.31 30.1364ZM18.31 29.233C18.7589 29.233 19.1282 29.1179 19.418 28.8878C19.7077 28.6577 19.9222 28.3551 20.0614 27.9801C20.2006 27.6051 20.2702 27.1989 20.2702 26.7614C20.2702 26.3239 20.2006 25.9162 20.0614 25.5384C19.9222 25.1605 19.7077 24.8551 19.418 24.6222C19.1282 24.3892 18.7589 24.2727 18.31 24.2727C17.8612 24.2727 17.4918 24.3892 17.2021 24.6222C16.9123 24.8551 16.6978 25.1605 16.5586 25.5384C16.4194 25.9162 16.3498 26.3239 16.3498 26.7614C16.3498 27.1989 16.4194 27.6051 16.5586 27.9801C16.6978 28.3551 16.9123 28.6577 17.2021 28.8878C17.4918 29.1179 17.8612 29.233 18.31 29.233ZM25.2827 30.1364C24.7372 30.1364 24.2557 29.9986 23.8381 29.723C23.4205 29.4446 23.0938 29.0526 22.858 28.5469C22.6222 28.0384 22.5043 27.4375 22.5043 26.7443C22.5043 26.0568 22.6222 25.4602 22.858 24.9545C23.0938 24.4489 23.4219 24.0582 23.8423 23.7827C24.2628 23.5071 24.7486 23.3693 25.2997 23.3693C25.7259 23.3693 26.0625 23.4403 26.3097 23.5824C26.5597 23.7216 26.75 23.8807 26.8807 24.0597C27.0142 24.2358 27.1179 24.3807 27.1918 24.4943H27.277V21.2727H28.2827V30H27.3111V28.9943H27.1918C27.1179 29.1136 27.0128 29.2642 26.8764 29.446C26.7401 29.625 26.5455 29.7855 26.2926 29.9276C26.0398 30.0668 25.7031 30.1364 25.2827 30.1364ZM25.419 29.233C25.8224 29.233 26.1634 29.1278 26.4418 28.9176C26.7202 28.7045 26.9318 28.4105 27.0767 28.0355C27.2216 27.6577 27.294 27.2216 27.294 26.7273C27.294 26.2386 27.223 25.8111 27.081 25.4446C26.9389 25.0753 26.7287 24.7884 26.4503 24.5838C26.1719 24.3764 25.8281 24.2727 25.419 24.2727C24.9929 24.2727 24.6378 24.3821 24.3537 24.6009C24.0724 24.8168 23.8608 25.1108 23.7188 25.483C23.5795 25.8523 23.5099 26.267 23.5099 26.7273C23.5099 27.1932 23.581 27.6165 23.723 27.9972C23.8679 28.375 24.081 28.6761 24.3622 28.9006C24.6463 29.1222 24.9986 29.233 25.419 29.233ZM30.2642 30V23.4545H31.2699V30H30.2642ZM30.7756 22.3636C30.5795 22.3636 30.4105 22.2969 30.2685 22.1634C30.1293 22.0298 30.0597 21.8693 30.0597 21.6818C30.0597 21.4943 30.1293 21.3338 30.2685 21.2003C30.4105 21.0668 30.5795 21 30.7756 21C30.9716 21 31.1392 21.0668 31.2784 21.2003C31.4205 21.3338 31.4915 21.4943 31.4915 21.6818C31.4915 21.8693 31.4205 22.0298 31.2784 22.1634C31.1392 22.2969 30.9716 22.3636 30.7756 22.3636ZM36.0266 23.4545V24.3068H32.4982V23.4545H36.0266ZM33.555 30V22.5511C33.555 22.1761 33.6431 21.8636 33.8192 21.6136C33.9954 21.3636 34.2241 21.1761 34.5053 21.0511C34.7866 20.9261 35.0835 20.8636 35.396 20.8636C35.6431 20.8636 35.8448 20.8835 36.0011 20.9233C36.1573 20.9631 36.2738 21 36.3505 21.0341L36.0607 21.9034C36.0096 21.8864 35.9386 21.8651 35.8477 21.8395C35.7596 21.8139 35.6431 21.8011 35.4982 21.8011C35.1658 21.8011 34.9258 21.8849 34.7781 22.0526C34.6332 22.2202 34.5607 22.4659 34.5607 22.7898V30H33.555ZM38.0838 32.4545C37.9134 32.4545 37.7614 32.4403 37.6278 32.4119C37.4943 32.3864 37.402 32.3608 37.3509 32.3352L37.6065 31.4489C37.8509 31.5114 38.0668 31.5341 38.2543 31.517C38.4418 31.5 38.608 31.4162 38.7528 31.2656C38.9006 31.1179 39.0355 30.8778 39.1577 30.5455L39.3452 30.0341L36.9247 23.4545H38.0156L39.8224 28.6705H39.8906L41.6974 23.4545H42.7884L40.0099 30.9545C39.8849 31.2926 39.7301 31.5724 39.5455 31.794C39.3608 32.0185 39.1463 32.1847 38.902 32.2926C38.6605 32.4006 38.3878 32.4545 38.0838 32.4545Z" fill="white"/>
</svg>
